<svg xmlns="http://www.w3.org/2000/svg" width="1200" height="92" viewBox="0 0 1200 92" role="img" aria-labelledby="t">
<title id="t">Project structure</title>
<rect x=".5" y=".5" width="1199" height="91" rx="16" fill="#000" stroke="#2A1F45"/>
<path fill="#6D5BA0" d="M39.16 58.16L39.16 58.16Q37.80 58.16 36.85 57.45Q35.90 56.75 35.39 55.42Q34.88 54.09 34.88 52.19L34.88 52.19Q34.88 50.30 35.39 48.96Q35.90 47.63 36.86 46.91Q37.81 46.20 39.16 46.20L39.16 46.20Q40.51 46.20 41.47 46.91Q42.43 47.63 42.94 48.96Q43.45 50.30 43.45 52.19L43.45 52.19Q43.45 54.08 42.94 55.41Q42.44 56.75 41.48 57.45Q40.52 58.16 39.16 58.16ZM39.16 56.63L39.16 56.63Q39.97 56.63 40.53 56.11Q41.09 55.58 41.39 54.59Q41.68 53.59 41.68 52.19L41.68 52.19Q41.68 50.77 41.39 49.77Q41.09 48.77 40.53 48.25Q39.97 47.72 39.16 47.72L39.16 47.72Q38.36 47.72 37.80 48.25Q37.23 48.78 36.94 49.78Q36.64 50.77 36.64 52.19L36.64 52.19Q36.64 53.59 36.94 54.59Q37.23 55.58 37.80 56.11Q38.36 56.63 39.16 56.63ZM51.48 58.16L51.48 58.16Q50.70 58.16 49.93 57.88Q49.17 57.60 48.56 56.96Q47.95 56.33 47.58 55.25Q47.21 54.17 47.21 52.57L47.21 52.57Q47.21 51.05 47.52 49.88Q47.82 48.70 48.40 47.88Q48.98 47.05 49.79 46.63Q50.60 46.20 51.63 46.20L51.63 46.20Q52.66 46.20 53.46 46.61Q54.27 47.02 54.79 47.74Q55.30 48.46 55.42 49.39L55.42 49.39L53.67 49.39Q53.49 48.68 52.97 48.22Q52.45 47.77 51.63 47.77L51.63 47.77Q50.77 47.77 50.17 48.27Q49.56 48.77 49.25 49.70Q48.93 50.63 48.93 51.95L48.93 51.95L49.02 51.95Q49.31 51.46 49.75 51.11Q50.19 50.75 50.74 50.56Q51.29 50.38 51.90 50.38L51.90 50.38Q52.91 50.38 53.73 50.86Q54.55 51.35 55.04 52.22Q55.53 53.09 55.53 54.20L55.53 54.20Q55.53 55.31 55.02 56.21Q54.52 57.11 53.61 57.63Q52.70 58.16 51.48 58.16ZM51.47 56.66L51.47 56.66Q52.13 56.66 52.66 56.33Q53.18 56 53.49 55.45Q53.80 54.90 53.80 54.22L53.80 54.22Q53.80 53.55 53.50 53.00Q53.20 52.46 52.68 52.14Q52.16 51.82 51.50 51.82L51.50 51.82Q51 51.82 50.57 52.01Q50.15 52.20 49.83 52.54Q49.51 52.88 49.33 53.32Q49.15 53.75 49.15 54.23L49.15 54.23Q49.15 54.88 49.45 55.43Q49.75 55.98 50.28 56.32Q50.80 56.66 51.47 56.66Z"/>
<rect x="66" y="30" width="1" height="32" fill="#3B2B66"/>
<path fill="#A98BFF" d="M93.57 58.09Q93.57 59.56 93.91 60.23Q94.26 60.90 95.25 61.17Q96.24 61.45 98.35 61.45L98.35 61.45Q98.49 61.45 98.49 61.72Q98.49 62 98.35 62L98.35 62Q96.47 62 95.41 61.95L95.41 61.95L91.41 61.91L88.09 61.95Q87.22 62 85.70 62L85.70 62Q85.56 62 85.56 61.72Q85.56 61.45 85.70 61.45L85.70 61.45Q87.27 61.45 87.98 61.22Q88.69 60.99 88.94 60.32Q89.20 59.65 89.20 58.27L89.20 58.27L89.20 36.98Q89.20 35.60 88.94 34.95Q88.69 34.31 87.96 34.05Q87.22 33.80 85.70 33.80L85.70 33.80Q85.56 33.80 85.56 33.53Q85.56 33.25 85.70 33.25L85.70 33.25L88.09 33.30Q90.12 33.39 91.36 33.39L91.36 33.39Q92.42 33.39 93.94 33.25L93.94 33.25Q94.49 33.20 95.43 33.16Q96.37 33.11 97.66 33.11L97.66 33.11Q102.17 33.11 104.84 35.04Q107.51 36.98 107.51 40.98L107.51 40.98Q107.51 43.88 106.01 45.90Q104.52 47.92 102.19 48.94Q99.87 49.95 97.43 49.95L97.43 49.95Q96.14 49.95 95.22 49.72L95.22 49.72Q95.13 49.72 95.13 49.49L95.13 49.49Q95.13 49.35 95.20 49.21Q95.27 49.07 95.36 49.12L95.36 49.12Q96.05 49.30 96.97 49.30L96.97 49.30Q99.36 49.30 101.02 47.33Q102.68 45.35 102.68 41.67L102.68 41.67Q102.68 38.03 101.00 36.03Q99.32 34.03 96.28 34.03L96.28 34.03Q95.18 34.03 94.60 34.26Q94.03 34.49 93.80 35.11Q93.57 35.73 93.57 37.07L93.57 37.07L93.57 58.09ZM115.69 48.98Q118.18 46.04 119.65 44.91Q121.12 43.78 122.27 43.78L122.27 43.78Q123.28 43.78 124.25 44.47Q125.22 45.16 125.22 46.13L125.22 46.13Q125.22 47.00 124.71 47.53Q124.20 48.06 123.28 48.06L123.28 48.06Q122.69 48.06 122.32 47.83Q121.95 47.60 121.49 47.14L121.49 47.14Q121.08 46.73 120.75 46.52Q120.43 46.31 119.97 46.31L119.97 46.31Q119.37 46.31 118.61 46.91Q117.86 47.51 116.02 49.53L116.02 49.53L115.69 48.98ZM110.77 62Q110.63 62 110.63 61.72Q110.63 61.45 110.77 61.45L110.77 61.45Q112.34 61.45 112.84 60.80Q113.35 60.16 113.35 58.27L113.35 58.27L113.35 49.49Q113.35 48.02 113.00 47.33Q112.66 46.64 111.88 46.64L111.88 46.64Q111.19 46.64 109.58 47.33L109.58 47.33L109.53 47.33Q109.35 47.33 109.25 47.10Q109.16 46.87 109.30 46.82L109.30 46.82L115.33 43.88Q115.60 43.78 115.65 43.78L115.65 43.78Q116.15 43.78 116.61 44.93Q117.07 46.08 117.07 47.92L117.07 47.92L117.07 58.27Q117.07 59.56 117.44 60.23Q117.81 60.90 118.71 61.17Q119.60 61.45 121.31 61.45L121.31 61.45Q121.49 61.45 121.49 61.72Q121.49 62 121.31 62L121.31 62Q119.74 62 118.82 61.95L118.82 61.95L115.23 61.91L112.57 61.95Q111.92 62 110.77 62L110.77 62ZM136.35 62.60Q133.59 62.60 131.47 61.29Q129.36 59.98 128.21 57.74Q127.06 55.51 127.06 52.89L127.06 52.89Q127.06 49.90 128.55 47.81Q130.05 45.72 132.37 44.68Q134.69 43.65 137.13 43.65L137.13 43.65Q139.94 43.65 142.03 44.98Q144.12 46.31 145.23 48.50Q146.33 50.68 146.33 53.17L146.33 53.17Q146.33 55.93 144.97 58.09Q143.62 60.25 141.32 61.42Q139.02 62.60 136.35 62.60L136.35 62.60ZM137.73 61.68Q139.75 61.68 140.86 59.88Q141.96 58.09 141.96 54.64L141.96 54.64Q141.96 51.56 141.11 49.26Q140.26 46.96 138.81 45.76Q137.36 44.57 135.61 44.57L135.61 44.57Q133.54 44.57 132.46 46.27Q131.38 47.97 131.38 51.28L131.38 51.28Q131.38 54.27 132.21 56.64Q133.04 59.01 134.48 60.34Q135.93 61.68 137.73 61.68L137.73 61.68ZM156.22 44.34L156.22 45.30Q156.13 47.23 156.13 49.86L156.13 49.86L156.13 64.21Q156.13 67.34 155.41 69.34Q154.70 71.34 153.07 72.67Q151.44 74.01 148.54 74.97L148.54 74.97Q148.45 75.02 148.33 74.77Q148.22 74.51 148.31 74.47L148.31 74.47Q150.56 73.50 151.48 71.38Q152.40 69.27 152.40 65.27L152.40 65.27L152.40 49.90Q152.40 48.34 152.08 47.63Q151.76 46.91 151.02 46.91L151.02 46.91Q150.29 46.91 149.18 47.46L149.18 47.46L149.14 47.46Q148.95 47.46 148.84 47.23Q148.72 47.00 148.86 46.91L148.86 46.91L155.48 43.83L155.62 43.78Q155.81 43.78 156.01 43.99Q156.22 44.20 156.22 44.34L156.22 44.34ZM153.92 38.95Q152.72 38.95 152.06 38.29Q151.39 37.62 151.39 36.47L151.39 36.47Q151.39 35.37 152.08 34.72Q152.77 34.08 153.92 34.08L153.92 34.08Q155.07 34.08 155.71 34.72Q156.36 35.37 156.36 36.47L156.36 36.47Q156.36 37.67 155.71 38.31Q155.07 38.95 153.92 38.95L153.92 38.95ZM170.48 62.55Q167.67 62.55 165.63 61.31Q163.58 60.07 162.50 58.04Q161.42 56.02 161.42 53.67L161.42 53.67Q161.42 50.96 162.75 48.71Q164.09 46.45 166.41 45.14Q168.73 43.83 171.58 43.83L171.58 43.83Q174.34 43.83 175.84 45.16Q177.33 46.50 177.33 49.12L177.33 49.12Q177.33 49.81 177.22 50.13Q177.10 50.45 176.83 50.45L176.83 50.45L173.06 50.45Q173.29 44.75 169.93 44.75L169.93 44.75Q167.86 44.75 166.69 46.64Q165.51 48.52 165.51 51.74L165.51 51.74Q165.51 55.79 167.40 58.16Q169.28 60.53 172.73 60.53L172.73 60.53Q174.02 60.53 174.90 60.21Q175.77 59.88 177.20 59.15L177.20 59.15L177.29 59.10Q177.38 59.10 177.50 59.29Q177.61 59.47 177.52 59.56L177.52 59.56Q175.86 61.13 174.16 61.84Q172.46 62.55 170.48 62.55L170.48 62.55ZM164.18 50.50L164.13 49.72L174.34 49.53L174.34 50.45L164.18 50.50ZM189.39 62.55Q186.40 62.55 184.30 61.24Q182.21 59.93 181.20 57.84Q180.19 55.74 180.19 53.44L180.19 53.44Q180.19 50.55 181.75 48.36Q183.31 46.18 185.78 45.00Q188.24 43.83 190.77 43.83L190.77 43.83Q192.93 43.83 194.65 44.70Q196.38 45.58 196.38 47.05L196.38 47.05Q196.38 47.83 195.80 48.38Q195.23 48.94 194.17 48.94L194.17 48.94Q192.38 48.94 191.64 46.91L191.64 46.91Q191.23 45.76 190.70 45.28Q190.17 44.80 189.06 44.80L189.06 44.80Q186.90 44.80 185.64 46.75Q184.37 48.71 184.37 51.97L184.37 51.97Q184.37 55.79 186.14 58.16Q187.91 60.53 191.69 60.53L191.69 60.53Q192.93 60.53 193.96 60.21Q195.00 59.88 196.19 59.19L196.19 59.19L196.24 59.19Q196.38 59.19 196.49 59.33Q196.61 59.47 196.52 59.56L196.52 59.56Q194.81 61.08 193.16 61.82Q191.50 62.55 189.39 62.55L189.39 62.55ZM206.50 62.55Q204.52 62.55 203.16 61.61Q201.81 60.67 201.81 58.46L201.81 58.46L201.81 48.06Q201.81 46.54 201.32 46.04Q200.84 45.53 199.46 45.53L199.46 45.53Q199.41 45.53 199.34 45.42Q199.28 45.30 199.28 45.16L199.28 45.16Q199.28 45.03 199.34 44.91Q199.41 44.80 199.46 44.80L199.46 44.80Q203.78 44.61 204.89 41.07L204.89 41.07Q204.93 40.89 205.26 40.89L205.26 40.89Q205.58 40.89 205.58 41.07L205.58 41.07L205.58 56.94Q205.58 58.73 206.47 59.59Q207.37 60.44 208.98 60.44L208.98 60.44Q210.91 60.44 212.62 59.10L212.62 59.10L212.71 59.06Q212.85 59.06 212.96 59.26Q213.08 59.47 212.94 59.56L212.94 59.56Q211.24 61.13 209.72 61.84Q208.20 62.55 206.50 62.55L206.50 62.55ZM211.51 46.54Q208.20 45.81 204.24 45.81L204.24 45.81L204.24 44.70Q207.19 44.70 211.70 44.24L211.70 44.24Q211.79 44.24 211.90 44.59Q212.02 44.93 212.02 45.35L212.02 45.35Q212.02 45.76 211.86 46.18Q211.70 46.59 211.51 46.54L211.51 46.54ZM229.41 46.64Q229.41 48.11 230.40 49.07Q231.38 50.04 233.27 51.05L233.27 51.05Q234.93 51.97 235.82 52.57Q236.72 53.17 237.39 54.18Q238.05 55.19 238.05 56.62L238.05 56.62Q238.05 58.18 237.27 59.52Q236.49 60.85 234.95 61.68Q233.41 62.51 231.29 62.51L231.29 62.51Q228.76 62.51 226.65 61.22L226.65 61.22Q226.37 60.94 226.37 60.67L226.37 60.67L226.28 56.43Q226.28 56.30 226.53 56.27Q226.78 56.25 226.83 56.39L226.83 56.39Q227.61 58.64 229.20 60.11Q230.79 61.59 232.58 61.59L232.58 61.59Q233.73 61.59 234.37 60.99Q235.02 60.39 235.02 59.19L235.02 59.19Q235.02 57.45 234.01 56.41Q232.99 55.38 231.06 54.36L231.06 54.36Q229.50 53.54 228.62 52.96Q227.75 52.39 227.13 51.40Q226.51 50.41 226.51 48.94L226.51 48.94Q226.51 46.31 228.42 45.03Q230.33 43.74 233.04 43.74L233.04 43.74Q234.83 43.74 236.72 44.43L236.72 44.43Q237.13 44.61 237.13 44.93L237.13 44.93Q237.13 45.99 237.09 46.59L237.09 46.59L237.04 48.80Q237.04 48.89 236.77 48.89Q236.49 48.89 236.49 48.80L236.49 48.80Q236.49 47.88 235.75 46.89Q235.02 45.90 233.87 45.26Q232.72 44.61 231.52 44.61L231.52 44.61Q229.41 44.61 229.41 46.64L229.41 46.64ZM248.27 62.55Q246.29 62.55 244.93 61.61Q243.57 60.67 243.57 58.46L243.57 58.46L243.57 48.06Q243.57 46.54 243.09 46.04Q242.61 45.53 241.23 45.53L241.23 45.53Q241.18 45.53 241.11 45.42Q241.04 45.30 241.04 45.16L241.04 45.16Q241.04 45.03 241.11 44.91Q241.18 44.80 241.23 44.80L241.23 44.80Q245.55 44.61 246.66 41.07L246.66 41.07Q246.70 40.89 247.02 40.89L247.02 40.89Q247.35 40.89 247.35 41.07L247.35 41.07L247.35 56.94Q247.35 58.73 248.24 59.59Q249.14 60.44 250.75 60.44L250.75 60.44Q252.68 60.44 254.38 59.10L254.38 59.10L254.48 59.06Q254.61 59.06 254.73 59.26Q254.84 59.47 254.71 59.56L254.71 59.56Q253.00 61.13 251.49 61.84Q249.97 62.55 248.27 62.55L248.27 62.55ZM253.28 46.54Q249.97 45.81 246.01 45.81L246.01 45.81L246.01 44.70Q248.96 44.70 253.46 44.24L253.46 44.24Q253.56 44.24 253.67 44.59Q253.79 44.93 253.79 45.35L253.79 45.35Q253.79 45.76 253.63 46.18Q253.46 46.59 253.28 46.54L253.28 46.54ZM262.07 48.98Q264.55 46.04 266.02 44.91Q267.49 43.78 268.64 43.78L268.64 43.78Q269.66 43.78 270.62 44.47Q271.59 45.16 271.59 46.13L271.59 46.13Q271.59 47.00 271.08 47.53Q270.58 48.06 269.66 48.06L269.66 48.06Q269.06 48.06 268.69 47.83Q268.32 47.60 267.86 47.14L267.86 47.14Q267.45 46.73 267.13 46.52Q266.80 46.31 266.34 46.31L266.34 46.31Q265.75 46.31 264.99 46.91Q264.23 47.51 262.39 49.53L262.39 49.53L262.07 48.98ZM257.14 62Q257.01 62 257.01 61.72Q257.01 61.45 257.14 61.45L257.14 61.45Q258.71 61.45 259.21 60.80Q259.72 60.16 259.72 58.27L259.72 58.27L259.72 49.49Q259.72 48.02 259.38 47.33Q259.03 46.64 258.25 46.64L258.25 46.64Q257.56 46.64 255.95 47.33L255.95 47.33L255.90 47.33Q255.72 47.33 255.63 47.10Q255.53 46.87 255.67 46.82L255.67 46.82L261.70 43.88Q261.97 43.78 262.02 43.78L262.02 43.78Q262.53 43.78 262.99 44.93Q263.45 46.08 263.45 47.92L263.45 47.92L263.45 58.27Q263.45 59.56 263.81 60.23Q264.18 60.90 265.08 61.17Q265.98 61.45 267.68 61.45L267.68 61.45Q267.86 61.45 267.86 61.72Q267.86 62 267.68 62L267.68 62Q266.11 62 265.19 61.95L265.19 61.95L261.61 61.91L258.94 61.95Q258.29 62 257.14 62L257.14 62ZM281.16 62.51Q278.67 62.51 277.29 60.97Q275.91 59.42 275.91 56.76L275.91 56.76L275.91 49.90Q275.91 48.29 275.57 47.53Q275.22 46.77 274.49 46.77L274.49 46.77Q273.89 46.77 273.20 47.14L273.20 47.14L273.15 47.14Q272.97 47.14 272.88 46.91Q272.78 46.68 272.92 46.59L272.92 46.59L278.72 43.88L278.95 43.83Q279.13 43.83 279.36 44.01Q279.59 44.20 279.59 44.34L279.59 44.34L279.59 54.78Q279.59 57.35 280.54 58.62Q281.48 59.88 283.41 59.88L283.41 59.88Q284.88 59.88 286.38 59.03Q287.87 58.18 288.84 56.80L288.84 56.80L289.11 57.35Q285.34 62.51 281.16 62.51L281.16 62.51ZM291.64 56.80Q291.64 58.37 291.97 59.03Q292.29 59.70 293.07 59.70L293.07 59.70Q293.62 59.70 295.14 59.15L295.14 59.15L295.23 59.10Q295.37 59.10 295.46 59.33Q295.55 59.56 295.42 59.65L295.42 59.65L289.39 62.55L289.21 62.60Q288.70 62.60 288.33 61.45Q287.96 60.30 287.96 58.37L287.96 58.37L287.96 49.90Q287.96 48.29 287.62 47.53Q287.27 46.77 286.54 46.77L286.54 46.77Q285.99 46.77 285.25 47.14L285.25 47.14L285.20 47.14Q285.02 47.14 284.93 46.89Q284.84 46.64 285.02 46.59L285.02 46.59L290.82 43.88L291.00 43.83Q291.18 43.83 291.41 44.01Q291.64 44.20 291.64 44.34L291.64 44.34L291.64 56.80ZM306.23 62.55Q303.24 62.55 301.14 61.24Q299.05 59.93 298.04 57.84Q297.03 55.74 297.03 53.44L297.03 53.44Q297.03 50.55 298.59 48.36Q300.15 46.18 302.62 45.00Q305.08 43.83 307.61 43.83L307.61 43.83Q309.77 43.83 311.49 44.70Q313.22 45.58 313.22 47.05L313.22 47.05Q313.22 47.83 312.64 48.38Q312.07 48.94 311.01 48.94L311.01 48.94Q309.22 48.94 308.48 46.91L308.48 46.91Q308.07 45.76 307.54 45.28Q307.01 44.80 305.90 44.80L305.90 44.80Q303.74 44.80 302.48 46.75Q301.21 48.71 301.21 51.97L301.21 51.97Q301.21 55.79 302.98 58.16Q304.75 60.53 308.53 60.53L308.53 60.53Q309.77 60.53 310.80 60.21Q311.84 59.88 313.03 59.19L313.03 59.19L313.08 59.19Q313.22 59.19 313.33 59.33Q313.45 59.47 313.36 59.56L313.36 59.56Q311.65 61.08 310.00 61.82Q308.34 62.55 306.23 62.55L306.23 62.55ZM323.34 62.55Q321.36 62.55 320.00 61.61Q318.65 60.67 318.65 58.46L318.65 58.46L318.65 48.06Q318.65 46.54 318.16 46.04Q317.68 45.53 316.30 45.53L316.30 45.53Q316.25 45.53 316.19 45.42Q316.12 45.30 316.12 45.16L316.12 45.16Q316.12 45.03 316.19 44.91Q316.25 44.80 316.30 44.80L316.30 44.80Q320.62 44.61 321.73 41.07L321.73 41.07Q321.77 40.89 322.10 40.89L322.10 40.89Q322.42 40.89 322.42 41.07L322.42 41.07L322.42 56.94Q322.42 58.73 323.32 59.59Q324.21 60.44 325.82 60.44L325.82 60.44Q327.75 60.44 329.46 59.10L329.46 59.10L329.55 59.06Q329.69 59.06 329.80 59.26Q329.92 59.47 329.78 59.56L329.78 59.56Q328.08 61.13 326.56 61.84Q325.04 62.55 323.34 62.55L323.34 62.55ZM328.35 46.54Q325.04 45.81 321.08 45.81L321.08 45.81L321.08 44.70Q324.03 44.70 328.54 44.24L328.54 44.24Q328.63 44.24 328.74 44.59Q328.86 44.93 328.86 45.35L328.86 45.35Q328.86 45.76 328.70 46.18Q328.54 46.59 328.35 46.54L328.35 46.54ZM339.02 62.51Q336.54 62.51 335.16 60.97Q333.78 59.42 333.78 56.76L333.78 56.76L333.78 49.90Q333.78 48.29 333.44 47.53Q333.09 46.77 332.35 46.77L332.35 46.77Q331.76 46.77 331.07 47.14L331.07 47.14L331.02 47.14Q330.84 47.14 330.74 46.91Q330.65 46.68 330.79 46.59L330.79 46.59L336.59 43.88L336.82 43.83Q337.00 43.83 337.23 44.01Q337.46 44.20 337.46 44.34L337.46 44.34L337.46 54.78Q337.46 57.35 338.40 58.62Q339.35 59.88 341.28 59.88L341.28 59.88Q342.75 59.88 344.25 59.03Q345.74 58.18 346.71 56.80L346.71 56.80L346.98 57.35Q343.21 62.51 339.02 62.51L339.02 62.51ZM349.51 56.80Q349.51 58.37 349.83 59.03Q350.16 59.70 350.94 59.70L350.94 59.70Q351.49 59.70 353.01 59.15L353.01 59.15L353.10 59.10Q353.24 59.10 353.33 59.33Q353.42 59.56 353.28 59.65L353.28 59.65L347.26 62.55L347.07 62.60Q346.57 62.60 346.20 61.45Q345.83 60.30 345.83 58.37L345.83 58.37L345.83 49.90Q345.83 48.29 345.49 47.53Q345.14 46.77 344.41 46.77L344.41 46.77Q343.85 46.77 343.12 47.14L343.12 47.14L343.07 47.14Q342.89 47.14 342.80 46.89Q342.70 46.64 342.89 46.59L342.89 46.59L348.68 43.88L348.87 43.83Q349.05 43.83 349.28 44.01Q349.51 44.20 349.51 44.34L349.51 44.34L349.51 56.80ZM360.18 48.98Q362.67 46.04 364.14 44.91Q365.61 43.78 366.76 43.78L366.76 43.78Q367.77 43.78 368.74 44.47Q369.71 45.16 369.71 46.13L369.71 46.13Q369.71 47.00 369.20 47.53Q368.69 48.06 367.77 48.06L367.77 48.06Q367.18 48.06 366.81 47.83Q366.44 47.60 365.98 47.14L365.98 47.14Q365.57 46.73 365.24 46.52Q364.92 46.31 364.46 46.31L364.46 46.31Q363.86 46.31 363.11 46.91Q362.35 47.51 360.51 49.53L360.51 49.53L360.18 48.98ZM355.26 62Q355.12 62 355.12 61.72Q355.12 61.45 355.26 61.45L355.26 61.45Q356.83 61.45 357.33 60.80Q357.84 60.16 357.84 58.27L357.84 58.27L357.84 49.49Q357.84 48.02 357.49 47.33Q357.15 46.64 356.37 46.64L356.37 46.64Q355.68 46.64 354.07 47.33L354.07 47.33L354.02 47.33Q353.84 47.33 353.74 47.10Q353.65 46.87 353.79 46.82L353.79 46.82L359.82 43.88Q360.09 43.78 360.14 43.78L360.14 43.78Q360.64 43.78 361.10 44.93Q361.56 46.08 361.56 47.92L361.56 47.92L361.56 58.27Q361.56 59.56 361.93 60.23Q362.30 60.90 363.20 61.17Q364.09 61.45 365.80 61.45L365.80 61.45Q365.98 61.45 365.98 61.72Q365.98 62 365.80 62L365.80 62Q364.23 62 363.31 61.95L363.31 61.95L359.72 61.91L357.06 61.95Q356.41 62 355.26 62L355.26 62ZM380.61 62.55Q377.80 62.55 375.75 61.31Q373.71 60.07 372.63 58.04Q371.55 56.02 371.55 53.67L371.55 53.67Q371.55 50.96 372.88 48.71Q374.21 46.45 376.54 45.14Q378.86 43.83 381.71 43.83L381.71 43.83Q384.47 43.83 385.97 45.16Q387.46 46.50 387.46 49.12L387.46 49.12Q387.46 49.81 387.35 50.13Q387.23 50.45 386.96 50.45L386.96 50.45L383.18 50.45Q383.41 44.75 380.06 44.75L380.06 44.75Q377.99 44.75 376.81 46.64Q375.64 48.52 375.64 51.74L375.64 51.74Q375.64 55.79 377.53 58.16Q379.41 60.53 382.86 60.53L382.86 60.53Q384.15 60.53 385.02 60.21Q385.90 59.88 387.32 59.15L387.32 59.15L387.42 59.10Q387.51 59.10 387.62 59.29Q387.74 59.47 387.65 59.56L387.65 59.56Q385.99 61.13 384.29 61.84Q382.59 62.55 380.61 62.55L380.61 62.55ZM374.31 50.50L374.26 49.72L384.47 49.53L384.47 50.45L374.31 50.50Z"/>

<circle cx="1156" cy="46" r="5" fill="#7C3AED"/>
</svg>
